<svg id="Capa_1" data-name="Capa 1" xmlns="http://www.w3.org/2000/svg" viewBox="0 0 300 300"><defs><style>.cls-1{fill:#fced19;}.cls-2{fill:#ff9d00;}.cls-3{fill:#fff;}.cls-4{fill:none;stroke:#262626;stroke-linecap:round;stroke-linejoin:round;stroke-width:4px;}</style></defs><path class="cls-1" d="M150,0h0A150,150,0,0,1,300,150h0A150,150,0,0,1,150,300h0A150,150,0,0,1,0,150H0A150,150,0,0,1,150,0Z"/><path class="cls-1" d="M223.39,82.25v8H193.27v-8a15.06,15.06,0,0,1,30.12,0Z"/><path class="cls-2" d="M195.87,89.19a1.44,1.44,0,0,0-2.6-.85v1.71a1.88,1.88,0,0,0,.24.25h1.83A1.44,1.44,0,0,0,195.87,89.19Z"/><path class="cls-2" d="M198,84.15a1.44,1.44,0,1,0,1.44,1.44A1.43,1.43,0,0,0,198,84.15Z"/><path class="cls-2" d="M195.87,74.75a1.4,1.4,0,0,0-.19-.69,13.94,13.94,0,0,0-1.14,2.12A1.43,1.43,0,0,0,195.87,74.75Z"/><path class="cls-2" d="M189.47,71.19a1.49,1.49,0,0,0-.3-.86,14.79,14.79,0,0,0-2.09,1.94,1.44,1.44,0,0,0,2.39-1.08Z"/><path class="cls-2" d="M198,77a1.44,1.44,0,1,0,1.44,1.44A1.43,1.43,0,0,0,198,77Z"/><path class="cls-2" d="M194.43,83.43a1.44,1.44,0,1,0,0-2.88,1.46,1.46,0,0,0-1.1.52c0,.39-.06.78-.06,1.18v.6A1.43,1.43,0,0,0,194.43,83.43Z"/><path class="cls-2" d="M210.27,89.19a1.44,1.44,0,1,0-2.36,1.11h1.83A1.44,1.44,0,0,0,210.27,89.19Z"/><path class="cls-2" d="M203.07,89.19a1.44,1.44,0,1,0-2.36,1.11h1.83A1.44,1.44,0,0,0,203.07,89.19Z"/><path class="cls-2" d="M205.23,84.15a1.44,1.44,0,1,0,1.44,1.44,1.43,1.43,0,0,0-1.44-1.44Z"/><path class="cls-2" d="M212.43,84.15a1.44,1.44,0,1,0,1.44,1.44,1.43,1.43,0,0,0-1.44-1.44Z"/><path class="cls-2" d="M208.83,73.35a1.44,1.44,0,1,0,1.44,1.44,1.43,1.43,0,0,0-1.44-1.44Z"/><path class="cls-2" d="M201.63,73.35a1.44,1.44,0,1,0,1.44,1.44,1.43,1.43,0,0,0-1.44-1.44Z"/><path class="cls-2" d="M195.23,69.75a1.44,1.44,0,1,0,1.44,1.44,1.43,1.43,0,0,0-1.44-1.44Z"/><path class="cls-2" d="M202.43,69.75a1.44,1.44,0,1,0,1.44,1.44,1.43,1.43,0,0,0-1.44-1.44Z"/><path class="cls-2" d="M205.23,77a1.44,1.44,0,1,0,1.44,1.44A1.43,1.43,0,0,0,205.23,77Z"/><path class="cls-2" d="M212.43,77a1.44,1.44,0,1,0,1.44,1.44A1.43,1.43,0,0,0,212.43,77Z"/><path class="cls-2" d="M208.83,80.55A1.44,1.44,0,1,0,210.27,82a1.43,1.43,0,0,0-1.44-1.44Z"/><path class="cls-2" d="M201.63,80.55A1.44,1.44,0,1,0,203.07,82a1.43,1.43,0,0,0-1.44-1.44Z"/><path class="cls-2" d="M198.83,69a1.43,1.43,0,0,0,1.44-1.44h0a1.13,1.13,0,0,0,0-.26,15,15,0,0,0-1.9-.13,5.62,5.62,0,0,0-.91,0,1.93,1.93,0,0,0,0,.34A1.43,1.43,0,0,0,198.83,69Z"/><path class="cls-2" d="M192.92,68.22a14.13,14.13,0,0,0-1.68.76,1.74,1.74,0,0,0,.39,0A1.44,1.44,0,0,0,192.92,68.22Z"/><path class="cls-2" d="M221.79,89.19a1.43,1.43,0,0,0,.52,1.11h1.08V87.75h-.16a1.43,1.43,0,0,0-1.44,1.44Z"/><path class="cls-2" d="M217.47,89.19a1.44,1.44,0,1,0-2.36,1.11h1.83A1.44,1.44,0,0,0,217.47,89.19Z"/><path class="cls-2" d="M219.63,84.15a1.44,1.44,0,1,0,1.44,1.44,1.43,1.43,0,0,0-1.44-1.44Z"/><path class="cls-2" d="M216,73.35a1.44,1.44,0,1,0,1.44,1.44A1.43,1.43,0,0,0,216,73.35Z"/><path class="cls-2" d="M209.63,72.63h.26a15.87,15.87,0,0,0-1.68-1.7v.28A1.44,1.44,0,0,0,209.63,72.63Z"/><path class="cls-2" d="M219.63,77a1.44,1.44,0,1,0,1.44,1.44A1.43,1.43,0,0,0,219.63,77Z"/><path class="cls-2" d="M221.79,82a1.43,1.43,0,0,0,1.42,1.44h.18V82.25a16,16,0,0,0-.1-1.69h-.06A1.44,1.44,0,0,0,221.79,82Z"/><path class="cls-2" d="M216,80.55A1.44,1.44,0,1,0,217.44,82,1.43,1.43,0,0,0,216,80.55Z"/><path class="cls-3" d="M193.27,67.2h15.07a15.06,15.06,0,0,0-15.07,15h0v135.5a15,15,0,1,1-30.09,0v-7.53H95.42v-128a15,15,0,0,1,15-15h82.9Z"/><path class="cls-1" d="M178.22,232.8H91.66a15,15,0,0,1-15-15V214a3.77,3.77,0,0,1,3.77-3.76h82.8v7.53a15,15,0,0,0,15,15.05Z"/><path class="cls-2" d="M82.83,228.15a1.43,1.43,0,0,0-1.26.75,14.53,14.53,0,0,0,2.28,1.7,1.38,1.38,0,0,0,.42-1A1.45,1.45,0,0,0,82.83,228.15Z"/><path class="cls-2" d="M79.23,217.35a1.44,1.44,0,1,0,1.44,1.44,1.43,1.43,0,0,0-1.44-1.44Z"/><path class="cls-2" d="M77.07,215.19a1.42,1.42,0,0,0-.46-1v2.09A1.45,1.45,0,0,0,77.07,215.19Z"/><path class="cls-2" d="M82.83,213.75a1.44,1.44,0,1,0,1.44,1.44,1.43,1.43,0,0,0-1.44-1.44Z"/><path class="cls-2" d="M82.83,221a1.44,1.44,0,1,0,1.44,1.44A1.43,1.43,0,0,0,82.83,221Z"/><path class="cls-2" d="M80.67,226a1.46,1.46,0,0,0-1.44-1.44,1.37,1.37,0,0,0-.85.29A15.69,15.69,0,0,0,80,227.23,1.44,1.44,0,0,0,80.67,226Z"/><path class="cls-2" d="M79.23,213a1.44,1.44,0,0,0,.57-2.76,3.76,3.76,0,0,0-2,.94,1.58,1.58,0,0,0,0,.38A1.43,1.43,0,0,0,79.17,213Z"/><path class="cls-2" d="M93.63,231.75a1.43,1.43,0,0,0-1.38,1.05H95A1.43,1.43,0,0,0,93.63,231.75Z"/><path class="cls-2" d="M86.43,231.75h-.21c.41.16.82.31,1.24.43A1.42,1.42,0,0,0,86.43,231.75Z"/><path class="cls-2" d="M90,228.15a1.44,1.44,0,1,0,1.44,1.44A1.43,1.43,0,0,0,90,228.15Z"/><path class="cls-2" d="M97.23,228.15a1.44,1.44,0,1,0,1.44,1.44,1.43,1.43,0,0,0-1.44-1.44Z"/><path class="cls-2" d="M93.63,217.35a1.44,1.44,0,1,0,1.44,1.44,1.43,1.43,0,0,0-1.44-1.44Z"/><path class="cls-2" d="M86.43,217.35a1.44,1.44,0,1,0,1.44,1.44,1.43,1.43,0,0,0-1.44-1.44Z"/><path class="cls-2" d="M90,213.75a1.44,1.44,0,1,0,1.44,1.44A1.43,1.43,0,0,0,90,213.75Z"/><path class="cls-2" d="M97.23,213.75a1.44,1.44,0,1,0,1.44,1.44,1.43,1.43,0,0,0-1.44-1.44Z"/><path class="cls-2" d="M90,221a1.44,1.44,0,1,0,1.44,1.44A1.43,1.43,0,0,0,90,221Z"/><path class="cls-2" d="M97.23,221a1.44,1.44,0,1,0,1.44,1.44A1.43,1.43,0,0,0,97.23,221Z"/><path class="cls-2" d="M93.63,224.55A1.44,1.44,0,1,0,95.07,226a1.43,1.43,0,0,0-1.44-1.44Z"/><path class="cls-2" d="M86.43,224.55A1.44,1.44,0,1,0,87.87,226a1.43,1.43,0,0,0-1.44-1.44Z"/><path class="cls-2" d="M92.19,211.59A1.44,1.44,0,1,0,94,210.22h-.79A1.43,1.43,0,0,0,92.19,211.59Z"/><path class="cls-2" d="M85,211.59a1.44,1.44,0,1,0,1.83-1.37H86A1.43,1.43,0,0,0,85,211.59Z"/><path class="cls-2" d="M108,231.75a1.43,1.43,0,0,0-1.38,1.05h2.75A1.43,1.43,0,0,0,108,231.75Z"/><path class="cls-2" d="M100.83,231.75a1.43,1.43,0,0,0-1.38,1.05h2.75A1.43,1.43,0,0,0,100.83,231.75Z"/><path class="cls-2" d="M104.43,228.15a1.44,1.44,0,1,0,1.44,1.44,1.43,1.43,0,0,0-1.44-1.44Z"/><path class="cls-2" d="M111.63,228.15a1.44,1.44,0,1,0,1.44,1.44,1.43,1.43,0,0,0-1.44-1.44Z"/><path class="cls-2" d="M108,217.35a1.44,1.44,0,1,0,1.44,1.44,1.43,1.43,0,0,0-1.44-1.44Z"/><path class="cls-2" d="M100.83,217.35a1.44,1.44,0,1,0,1.44,1.44,1.43,1.43,0,0,0-1.44-1.44Z"/><path class="cls-2" d="M104.43,213.75a1.44,1.44,0,1,0,1.44,1.44,1.43,1.43,0,0,0-1.44-1.44Z"/><path class="cls-2" d="M111.63,213.75a1.44,1.44,0,1,0,1.44,1.44,1.43,1.43,0,0,0-1.44-1.44Z"/><path class="cls-2" d="M104.43,221a1.44,1.44,0,1,0,1.44,1.44,1.43,1.43,0,0,0-1.44-1.44Z"/><path class="cls-2" d="M111.63,221a1.44,1.44,0,1,0,1.44,1.44,1.43,1.43,0,0,0-1.44-1.44Z"/><path class="cls-2" d="M108,224.55a1.44,1.44,0,1,0,1.44,1.44,1.43,1.43,0,0,0-1.44-1.44Z"/><path class="cls-2" d="M100.83,224.55a1.44,1.44,0,1,0,1.44,1.44,1.43,1.43,0,0,0-1.44-1.44Z"/><path class="cls-2" d="M106.59,211.59a1.44,1.44,0,1,0,1.83-1.37h-.79A1.43,1.43,0,0,0,106.59,211.59Z"/><path class="cls-2" d="M99.39,211.59a1.44,1.44,0,1,0,1.83-1.37h-.79A1.43,1.43,0,0,0,99.39,211.59Z"/><path class="cls-2" d="M122.43,231.75a1.43,1.43,0,0,0-1.38,1.05h2.75A1.43,1.43,0,0,0,122.43,231.75Z"/><path class="cls-2" d="M115.23,231.75a1.43,1.43,0,0,0-1.38,1.05h2.75A1.43,1.43,0,0,0,115.23,231.75Z"/><path class="cls-2" d="M118.83,228.15a1.44,1.44,0,1,0,1.44,1.44,1.43,1.43,0,0,0-1.44-1.44Z"/><path class="cls-2" d="M126,228.15a1.44,1.44,0,1,0,1.44,1.44,1.43,1.43,0,0,0-1.44-1.44Z"/><path class="cls-2" d="M122.43,217.35a1.44,1.44,0,1,0,1.44,1.44,1.43,1.43,0,0,0-1.44-1.44Z"/><path class="cls-2" d="M115.23,217.35a1.44,1.44,0,1,0,1.44,1.44,1.43,1.43,0,0,0-1.44-1.44Z"/><path class="cls-2" d="M118.83,213.75a1.44,1.44,0,1,0,1.44,1.44,1.43,1.43,0,0,0-1.44-1.44Z"/><path class="cls-2" d="M126,213.75a1.44,1.44,0,1,0,1.44,1.44,1.43,1.43,0,0,0-1.44-1.44Z"/><path class="cls-2" d="M118.83,221a1.44,1.44,0,1,0,1.44,1.44,1.43,1.43,0,0,0-1.44-1.44Z"/><path class="cls-2" d="M126,221a1.44,1.44,0,1,0,1.44,1.44A1.43,1.43,0,0,0,126,221Z"/><path class="cls-2" d="M122.43,224.55a1.44,1.44,0,1,0,1.44,1.44,1.43,1.43,0,0,0-1.44-1.44Z"/><path class="cls-2" d="M115.23,224.55a1.44,1.44,0,1,0,1.44,1.44,1.43,1.43,0,0,0-1.44-1.44Z"/><path class="cls-2" d="M121,211.59a1.44,1.44,0,1,0,1.83-1.37H122A1.43,1.43,0,0,0,121,211.59Z"/><path class="cls-2" d="M113.79,211.59a1.44,1.44,0,1,0,1.83-1.37h-.79A1.43,1.43,0,0,0,113.79,211.59Z"/><path class="cls-2" d="M136.83,231.75a1.43,1.43,0,0,0-1.38,1.05h2.75A1.43,1.43,0,0,0,136.83,231.75Z"/><path class="cls-2" d="M129.63,231.75a1.43,1.43,0,0,0-1.38,1.05H131A1.43,1.43,0,0,0,129.63,231.75Z"/><path class="cls-2" d="M133.23,228.15a1.44,1.44,0,1,0,1.44,1.44,1.43,1.43,0,0,0-1.44-1.44Z"/><path class="cls-2" d="M140.43,228.15a1.44,1.44,0,1,0,1.44,1.44,1.43,1.43,0,0,0-1.44-1.44Z"/><path class="cls-2" d="M136.83,217.35a1.44,1.44,0,1,0,1.44,1.44,1.43,1.43,0,0,0-1.44-1.44Z"/><path class="cls-2" d="M129.63,217.35a1.44,1.44,0,1,0,1.44,1.44,1.43,1.43,0,0,0-1.44-1.44Z"/><path class="cls-2" d="M133.23,213.75a1.44,1.44,0,1,0,1.44,1.44,1.43,1.43,0,0,0-1.44-1.44Z"/><path class="cls-2" d="M140.43,213.75a1.44,1.44,0,1,0,1.44,1.44,1.43,1.43,0,0,0-1.44-1.44Z"/><path class="cls-2" d="M133.23,221a1.44,1.44,0,1,0,1.44,1.44,1.43,1.43,0,0,0-1.44-1.44Z"/><path class="cls-2" d="M140.43,221a1.44,1.44,0,1,0,1.44,1.44,1.43,1.43,0,0,0-1.44-1.44Z"/><path class="cls-2" d="M136.83,224.55a1.44,1.44,0,1,0,1.44,1.44,1.43,1.43,0,0,0-1.44-1.44Z"/><path class="cls-2" d="M129.63,224.55a1.44,1.44,0,1,0,1.44,1.44,1.43,1.43,0,0,0-1.44-1.44Z"/><path class="cls-2" d="M135.39,211.59a1.44,1.44,0,1,0,1.83-1.37h-.79A1.43,1.43,0,0,0,135.39,211.59Z"/><path class="cls-2" d="M128.19,211.59a1.44,1.44,0,1,0,1.83-1.37h-.79A1.43,1.43,0,0,0,128.19,211.59Z"/><path class="cls-2" d="M151.23,231.75a1.43,1.43,0,0,0-1.38,1.05h2.75A1.43,1.43,0,0,0,151.23,231.75Z"/><path class="cls-2" d="M144,231.75a1.43,1.43,0,0,0-1.38,1.05h2.75A1.43,1.43,0,0,0,144,231.75Z"/><path class="cls-2" d="M147.63,228.15a1.44,1.44,0,1,0,1.44,1.44,1.43,1.43,0,0,0-1.44-1.44Z"/><path class="cls-2" d="M154.83,228.15a1.44,1.44,0,1,0,1.44,1.44,1.43,1.43,0,0,0-1.44-1.44Z"/><path class="cls-2" d="M151.23,217.35a1.44,1.44,0,1,0,1.44,1.44,1.43,1.43,0,0,0-1.44-1.44Z"/><path class="cls-2" d="M144,217.35a1.44,1.44,0,1,0,1.44,1.44,1.43,1.43,0,0,0-1.44-1.44Z"/><path class="cls-2" d="M147.63,213.75a1.44,1.44,0,1,0,1.44,1.44,1.43,1.43,0,0,0-1.44-1.44Z"/><path class="cls-2" d="M154.83,213.75a1.44,1.44,0,1,0,1.44,1.44,1.43,1.43,0,0,0-1.44-1.44Z"/><path class="cls-2" d="M147.63,221a1.44,1.44,0,1,0,1.44,1.44,1.43,1.43,0,0,0-1.44-1.44Z"/><path class="cls-2" d="M154.83,221a1.44,1.44,0,1,0,1.44,1.44,1.43,1.43,0,0,0-1.44-1.44Z"/><path class="cls-2" d="M151.23,224.55a1.44,1.44,0,1,0,1.44,1.44,1.43,1.43,0,0,0-1.44-1.44Z"/><path class="cls-2" d="M144,224.55a1.44,1.44,0,1,0,1.44,1.44,1.43,1.43,0,0,0-1.44-1.44Z"/><path class="cls-2" d="M149.79,211.59a1.44,1.44,0,1,0,1.83-1.37h-.79A1.43,1.43,0,0,0,149.79,211.59Z"/><path class="cls-2" d="M142.59,211.59a1.44,1.44,0,1,0,1.83-1.37h-.79A1.43,1.43,0,0,0,142.59,211.59Z"/><path class="cls-2" d="M165.63,231.75a1.43,1.43,0,0,0-1.38,1.05H167A1.43,1.43,0,0,0,165.63,231.75Z"/><path class="cls-2" d="M158.43,231.75a1.43,1.43,0,0,0-1.38,1.05h2.75A1.43,1.43,0,0,0,158.43,231.75Z"/><path class="cls-2" d="M162,228.15a1.44,1.44,0,1,0,1.44,1.44,1.43,1.43,0,0,0-1.44-1.44Z"/><path class="cls-2" d="M169.23,231a1.44,1.44,0,0,0,1.08-.49A15.44,15.44,0,0,1,168,228.8a1.44,1.44,0,0,0,.41,2,1.41,1.41,0,0,0,.79.24Z"/><path class="cls-2" d="M158.43,217.35a1.44,1.44,0,1,0,1.44,1.44,1.43,1.43,0,0,0-1.44-1.44Z"/><path class="cls-2" d="M162,213.75a1.44,1.44,0,1,0,1.15,2.3v-1.72A1.45,1.45,0,0,0,162,213.75Z"/><path class="cls-2" d="M162,221a1.44,1.44,0,1,0,1.44,1.44A1.43,1.43,0,0,0,162,221Z"/><path class="cls-2" d="M164.19,226a1.43,1.43,0,0,0,1.42,1.44h0a1.44,1.44,0,0,0,.85-.28,13.58,13.58,0,0,1-1.57-2.4A1.44,1.44,0,0,0,164.19,226Z"/><path class="cls-2" d="M158.43,224.55a1.44,1.44,0,1,0,1.44,1.44,1.43,1.43,0,0,0-1.44-1.44Z"/><path class="cls-2" d="M157,211.59a1.44,1.44,0,1,0,1.83-1.37H158A1.43,1.43,0,0,0,157,211.59Z"/><path class="cls-2" d="M173.8,232.14a7.73,7.73,0,0,1-1-.38,1.41,1.41,0,0,0-1.3,1h2.75A1.33,1.33,0,0,0,173.8,232.14Z"/><path class="cls-4" d="M125.54,67.2H110.47a15,15,0,0,0-15,15v128.1"/><polyline class="cls-4" points="193.27 97.32 193.27 90.3 193.27 89.78"/><path class="cls-4" d="M125.54,67.2h82.8a15.05,15.05,0,0,1,15,15v8H193.27"/><path class="cls-4" d="M208.34,67.2a15.06,15.06,0,0,0-15.07,15h0v7.5"/><path class="cls-4" d="M178.22,232.8a15,15,0,0,1-15-15v-7.58H80.42A3.77,3.77,0,0,0,76.65,214v3.77A15,15,0,0,0,91.6,232.8h86.61a15,15,0,0,0,15-15V97.32"/></svg>