<svg id="Capa_1" data-name="Capa 1" xmlns="http://www.w3.org/2000/svg" viewBox="0 0 300 300"><defs><style>.cls-1{fill:#ff85ff;}.cls-2{fill:#ff0bff;}.cls-3{fill:#fff;}.cls-4{fill:none;stroke:#262626;stroke-linecap:round;stroke-linejoin:round;stroke-width:4px;}</style></defs><path class="cls-1" d="M150,0h0A150,150,0,0,1,300,150h0A150,150,0,0,1,150,300h0A150,150,0,0,1,0,150H0A150,150,0,0,1,150,0Z"/><path class="cls-1" d="M178.6,132.41v22.81a14.3,14.3,0,0,1-22.29,11.86l-.48-.1A14.35,14.35,0,0,0,150,149.12V120.43a14.31,14.31,0,0,1,28.61,0Z"/><path class="cls-2" d="M158,161.19a1.44,1.44,0,0,0-1.15-1.41,14.66,14.66,0,0,1,.09,1.62q0,.6-.06,1.2A1.44,1.44,0,0,0,158,161.19Z"/><path class="cls-2" d="M160.17,156.15a1.44,1.44,0,1,0,1.44,1.44A1.46,1.46,0,0,0,160.17,156.15Z"/><path class="cls-2" d="M160.17,163.35a1.44,1.44,0,1,0,1.44,1.44A1.46,1.46,0,0,0,160.17,163.35Z"/><path class="cls-2" d="M156.57,167a1.45,1.45,0,0,0-.46.09h.2a15.41,15.41,0,0,0,1.65,1A1.43,1.43,0,0,0,156.57,167Z"/><path class="cls-2" d="M156.57,145.35A1.44,1.44,0,1,0,158,146.8v-.05A1.46,1.46,0,0,0,156.57,145.35Z"/><path class="cls-2" d="M150.81,146.75a1.42,1.42,0,0,0-.82-1.29v2.59A1.42,1.42,0,0,0,150.81,146.75Z"/><path class="cls-2" d="M153,141.75a1.44,1.44,0,1,0,1.44,1.44A1.46,1.46,0,0,0,153,141.75Z"/><path class="cls-2" d="M160.17,141.75a1.44,1.44,0,1,0,1.44,1.44A1.46,1.46,0,0,0,160.17,141.75Z"/><path class="cls-2" d="M154.41,150.39a1.44,1.44,0,0,0-2.86-.18,13.53,13.53,0,0,1,1.7,1.6A1.46,1.46,0,0,0,154.41,150.39Z"/><path class="cls-2" d="M160.17,149a1.44,1.44,0,1,0,1.44,1.44A1.46,1.46,0,0,0,160.17,149Z"/><path class="cls-2" d="M156.57,152.55A1.44,1.44,0,1,0,158,154,1.46,1.46,0,0,0,156.57,152.55Z"/><path class="cls-2" d="M156.57,131a1.44,1.44,0,1,0,1.44,1.44A1.46,1.46,0,0,0,156.57,131Z"/><path class="cls-2" d="M150.81,132.39a1.42,1.42,0,0,0-.82-1.29v2.59A1.42,1.42,0,0,0,150.81,132.39Z"/><path class="cls-2" d="M153,127.35a1.44,1.44,0,1,0,1.44,1.44A1.46,1.46,0,0,0,153,127.35Z"/><path class="cls-2" d="M160.17,127.35a1.44,1.44,0,1,0,1.44,1.44A1.46,1.46,0,0,0,160.17,127.35Z"/><path class="cls-2" d="M153,134.55a1.44,1.44,0,1,0,1.44,1.44A1.46,1.46,0,0,0,153,134.55Z"/><path class="cls-2" d="M160.17,134.55a1.44,1.44,0,1,0,1.44,1.44A1.46,1.46,0,0,0,160.17,134.55Z"/><path class="cls-2" d="M156.57,138.15a1.44,1.44,0,1,0,1.44,1.44A1.46,1.46,0,0,0,156.57,138.15Z"/><path class="cls-2" d="M150.81,139.59a1.42,1.42,0,0,0-.82-1.29v2.59A1.42,1.42,0,0,0,150.81,139.59Z"/><path class="cls-2" d="M156.57,116.55A1.44,1.44,0,1,0,158,118,1.46,1.46,0,0,0,156.57,116.55Z"/><path class="cls-2" d="M150.81,118a1.48,1.48,0,0,0-.39-1,15.52,15.52,0,0,0-.37,2.25A1.46,1.46,0,0,0,150.81,118Z"/><path class="cls-2" d="M153,113a1.44,1.44,0,1,0,1.44,1.44A1.46,1.46,0,0,0,153,113Z"/><path class="cls-2" d="M160.17,113a1.44,1.44,0,1,0,1.44,1.44A1.46,1.46,0,0,0,160.17,113Z"/><path class="cls-2" d="M153,120.15a1.44,1.44,0,1,0,1.44,1.44A1.46,1.46,0,0,0,153,120.15Z"/><path class="cls-2" d="M160.17,120.15a1.44,1.44,0,1,0,1.44,1.44A1.46,1.46,0,0,0,160.17,120.15Z"/><path class="cls-2" d="M156.57,123.75a1.44,1.44,0,1,0,1.44,1.44A1.46,1.46,0,0,0,156.57,123.75Z"/><path class="cls-2" d="M150.81,125.19a1.42,1.42,0,0,0-.82-1.29v2.59A1.42,1.42,0,0,0,150.81,125.19Z"/><path class="cls-2" d="M160.17,108.63a1.43,1.43,0,0,0,1.44-1.42v0a1.46,1.46,0,0,0-.22-.76,12.91,12.91,0,0,0-2.65.82A1.43,1.43,0,0,0,160.17,108.63Z"/><path class="cls-2" d="M156.57,109.35A1.44,1.44,0,1,0,158,110.8v0A1.46,1.46,0,0,0,156.57,109.35Z"/><path class="cls-2" d="M171,159.75a1.44,1.44,0,1,0,1.44,1.44A1.46,1.46,0,0,0,171,159.75Z"/><path class="cls-2" d="M163.77,159.75a1.44,1.44,0,1,0,1.44,1.44A1.46,1.46,0,0,0,163.77,159.75Z"/><path class="cls-2" d="M167.37,156.15a1.44,1.44,0,1,0,1.44,1.44A1.46,1.46,0,0,0,167.37,156.15Z"/><path class="cls-2" d="M174.57,159a1.44,1.44,0,1,0-1.44-1.44,1.43,1.43,0,0,0,1.44,1.44Z"/><path class="cls-2" d="M167.37,163.35a1.44,1.44,0,1,0,1.44,1.44A1.46,1.46,0,0,0,167.37,163.35Z"/><path class="cls-2" d="M174.57,163.35a1.44,1.44,0,0,0-.84,2.61,14.79,14.79,0,0,0,1.94-2.09A1.41,1.41,0,0,0,174.57,163.35Z"/><path class="cls-2" d="M169.53,168.39a.29.29,0,0,0,0,.13,15.11,15.11,0,0,0,2.37-1.21,1.44,1.44,0,0,0-2.39,1.08Z"/><path class="cls-2" d="M165.21,168.39a1.44,1.44,0,1,0-2.43,1,12.79,12.79,0,0,0,1.52.09h.38A1.45,1.45,0,0,0,165.21,168.39Z"/><path class="cls-2" d="M171,145.35a1.44,1.44,0,1,0,1.44,1.44A1.46,1.46,0,0,0,171,145.35Z"/><path class="cls-2" d="M163.77,145.35a1.44,1.44,0,1,0,1.44,1.44A1.46,1.46,0,0,0,163.77,145.35Z"/><path class="cls-2" d="M167.37,141.75a1.44,1.44,0,1,0,1.44,1.44A1.46,1.46,0,0,0,167.37,141.75Z"/><path class="cls-2" d="M174.57,144.63a1.44,1.44,0,1,0-1.44-1.44,1.43,1.43,0,0,0,1.44,1.44Z"/><path class="cls-2" d="M167.37,149a1.44,1.44,0,1,0,1.44,1.44A1.46,1.46,0,0,0,167.37,149Z"/><path class="cls-2" d="M174.57,151.83a1.44,1.44,0,1,0-1.44-1.44,1.43,1.43,0,0,0,1.44,1.44Z"/><path class="cls-2" d="M171,152.55a1.44,1.44,0,1,0,1.44,1.44A1.46,1.46,0,0,0,171,152.55Z"/><path class="cls-2" d="M163.77,152.55a1.44,1.44,0,1,0,1.44,1.44A1.46,1.46,0,0,0,163.77,152.55Z"/><path class="cls-2" d="M171,131a1.44,1.44,0,1,0,1.44,1.44A1.46,1.46,0,0,0,171,131Z"/><path class="cls-2" d="M163.77,131a1.44,1.44,0,1,0,1.44,1.44A1.46,1.46,0,0,0,163.77,131Z"/><path class="cls-2" d="M167.37,127.35a1.44,1.44,0,1,0,1.44,1.44A1.46,1.46,0,0,0,167.37,127.35Z"/><path class="cls-2" d="M174.57,130.23a1.44,1.44,0,1,0-1.44-1.44,1.43,1.43,0,0,0,1.44,1.44Z"/><path class="cls-2" d="M167.37,134.55a1.44,1.44,0,1,0,1.44,1.44A1.46,1.46,0,0,0,167.37,134.55Z"/><path class="cls-2" d="M174.57,137.43a1.44,1.44,0,1,0-1.44-1.44,1.43,1.43,0,0,0,1.44,1.44Z"/><path class="cls-2" d="M171,138.15a1.44,1.44,0,1,0,1.44,1.44A1.46,1.46,0,0,0,171,138.15Z"/><path class="cls-2" d="M163.77,138.15a1.44,1.44,0,1,0,1.44,1.44A1.46,1.46,0,0,0,163.77,138.15Z"/><path class="cls-2" d="M171,116.55a1.44,1.44,0,1,0,1.44,1.44A1.46,1.46,0,0,0,171,116.55Z"/><path class="cls-2" d="M163.77,116.55a1.44,1.44,0,1,0,1.44,1.44A1.46,1.46,0,0,0,163.77,116.55Z"/><path class="cls-2" d="M167.37,113a1.44,1.44,0,1,0,1.44,1.44A1.46,1.46,0,0,0,167.37,113Z"/><path class="cls-2" d="M174.57,115.83a1.44,1.44,0,1,0-1.44-1.44,1.43,1.43,0,0,0,1.44,1.44Z"/><path class="cls-2" d="M167.37,120.15a1.44,1.44,0,1,0,1.44,1.44A1.46,1.46,0,0,0,167.37,120.15Z"/><path class="cls-2" d="M174.57,123a1.44,1.44,0,1,0-1.44-1.44,1.43,1.43,0,0,0,1.44,1.44Z"/><path class="cls-2" d="M171,123.75a1.44,1.44,0,1,0,1.44,1.44A1.46,1.46,0,0,0,171,123.75Z"/><path class="cls-2" d="M163.77,123.75a1.44,1.44,0,1,0,1.44,1.44A1.46,1.46,0,0,0,163.77,123.75Z"/><path class="cls-2" d="M167.37,108.63a1.43,1.43,0,0,0,1.44-1.42v0a2,2,0,0,0,0-.35,14.33,14.33,0,0,0-2.5-.56,1.39,1.39,0,0,0-.34.91A1.44,1.44,0,0,0,167.37,108.63Z"/><path class="cls-2" d="M171,109.35a1.44,1.44,0,1,0,1.44,1.44A1.46,1.46,0,0,0,171,109.35Z"/><path class="cls-2" d="M163.77,109.35a1.44,1.44,0,1,0,1.44,1.44A1.46,1.46,0,0,0,163.77,109.35Z"/><path class="cls-2" d="M176.73,161.19a1.43,1.43,0,0,0,.2.73,14.71,14.71,0,0,0,.91-2.12A1.44,1.44,0,0,0,176.73,161.19Z"/><path class="cls-2" d="M176.73,146.75a1.43,1.43,0,0,0,1.44,1.44h0a1.55,1.55,0,0,0,.43-.07v-2.73a1.26,1.26,0,0,0-.43-.08A1.46,1.46,0,0,0,176.73,146.75Z"/><path class="cls-2" d="M176.73,154a1.43,1.43,0,0,0,1.44,1.44h0a1.2,1.2,0,0,0,.42-.07.33.33,0,0,0,0-.14v-2.59a1.26,1.26,0,0,0-.43-.08A1.45,1.45,0,0,0,176.73,154Z"/><path class="cls-2" d="M176.73,132.39a1.43,1.43,0,0,0,1.44,1.44h0a1.55,1.55,0,0,0,.43-.07V131a1.26,1.26,0,0,0-.43-.08A1.46,1.46,0,0,0,176.73,132.39Z"/><path class="cls-2" d="M176.73,139.59a1.43,1.43,0,0,0,1.44,1.44h0a1.55,1.55,0,0,0,.43-.07v-2.73a1.26,1.26,0,0,0-.43-.08A1.46,1.46,0,0,0,176.73,139.59Z"/><path class="cls-2" d="M176.73,118a1.43,1.43,0,0,0,1.44,1.44h0a1.58,1.58,0,0,0,.38-.05,14.14,14.14,0,0,0-.49-2.81A1.42,1.42,0,0,0,176.73,118Z"/><path class="cls-2" d="M176.73,125.19a1.43,1.43,0,0,0,1.44,1.44h0a1.55,1.55,0,0,0,.43-.07v-2.73a1.26,1.26,0,0,0-.43-.08A1.46,1.46,0,0,0,176.73,125.19Z"/><path class="cls-1" d="M150,127.75v21.34a14.26,14.26,0,0,0-7.34-2H121.4V120.43a14.3,14.3,0,0,1,28.59-.76c0,.26,0,.51,0,.76Z"/><path class="cls-2" d="M127.77,145.35a1.46,1.46,0,0,0-1.44,1.44,1.61,1.61,0,0,0,0,.31h2.81a1.61,1.61,0,0,0,0-.31A1.44,1.44,0,0,0,127.77,145.35Z"/><path class="cls-2" d="M121.4,145.62v1.48h.6a1.61,1.61,0,0,0,0-.31A1.44,1.44,0,0,0,121.4,145.62Z"/><path class="cls-2" d="M124.17,141.75a1.44,1.44,0,1,0,1.44,1.44A1.46,1.46,0,0,0,124.17,141.75Z"/><path class="cls-2" d="M131.37,141.75a1.44,1.44,0,1,0,1.44,1.44A1.46,1.46,0,0,0,131.37,141.75Z"/><path class="cls-2" d="M127.77,131a1.44,1.44,0,1,0,1.44,1.44A1.46,1.46,0,0,0,127.77,131Z"/><path class="cls-2" d="M122,132.39a1.43,1.43,0,0,0-.61-1.17v2.35A1.45,1.45,0,0,0,122,132.39Z"/><path class="cls-2" d="M124.17,127.35a1.44,1.44,0,1,0,1.44,1.44A1.46,1.46,0,0,0,124.17,127.35Z"/><path class="cls-2" d="M131.37,127.35a1.44,1.44,0,1,0,1.44,1.44A1.46,1.46,0,0,0,131.37,127.35Z"/><path class="cls-2" d="M124.17,134.55a1.44,1.44,0,1,0,1.44,1.44A1.46,1.46,0,0,0,124.17,134.55Z"/><path class="cls-2" d="M131.37,134.55a1.44,1.44,0,1,0,1.44,1.44A1.46,1.46,0,0,0,131.37,134.55Z"/><path class="cls-2" d="M127.77,138.15a1.44,1.44,0,1,0,1.44,1.44A1.46,1.46,0,0,0,127.77,138.15Z"/><path class="cls-2" d="M122,139.59a1.43,1.43,0,0,0-.61-1.17v2.33A1.45,1.45,0,0,0,122,139.59Z"/><path class="cls-2" d="M127.77,116.55a1.44,1.44,0,1,0,1.44,1.44A1.46,1.46,0,0,0,127.77,116.55Z"/><path class="cls-2" d="M122,118a1.48,1.48,0,0,0-.23-.79,13.74,13.74,0,0,0-.32,1.92A1.43,1.43,0,0,0,122,118Z"/><path class="cls-2" d="M124.17,115.83a1.44,1.44,0,0,0,0-2.88,1.4,1.4,0,0,0-.8.25c-.23.39-.44.8-.63,1.21A1.43,1.43,0,0,0,124.17,115.83Z"/><path class="cls-2" d="M131.37,113a1.44,1.44,0,1,0,1.44,1.44A1.46,1.46,0,0,0,131.37,113Z"/><path class="cls-2" d="M124.17,120.15a1.44,1.44,0,1,0,1.44,1.44A1.46,1.46,0,0,0,124.17,120.15Z"/><path class="cls-2" d="M131.37,120.15a1.44,1.44,0,1,0,1.44,1.44A1.46,1.46,0,0,0,131.37,120.15Z"/><path class="cls-2" d="M127.77,123.75a1.44,1.44,0,1,0,1.44,1.44A1.46,1.46,0,0,0,127.77,123.75Z"/><path class="cls-2" d="M122,125.19a1.43,1.43,0,0,0-.61-1.17v2.35A1.45,1.45,0,0,0,122,125.19Z"/><path class="cls-2" d="M131.37,108.63a1.43,1.43,0,0,0,1.44-1.42v0a1.42,1.42,0,0,0-.2-.72,14,14,0,0,0-2.66.87A1.43,1.43,0,0,0,131.37,108.63Z"/><path class="cls-2" d="M127.77,109.35a1.44,1.44,0,1,0,1.44,1.44A1.46,1.46,0,0,0,127.77,109.35Z"/><path class="cls-2" d="M142.17,145.35a1.46,1.46,0,0,0-1.44,1.44,1.61,1.61,0,0,0,0,.31h2.8a1,1,0,0,0,0-.34A1.44,1.44,0,0,0,142.17,145.35Z"/><path class="cls-2" d="M135,145.35a1.46,1.46,0,0,0-1.44,1.44,1.61,1.61,0,0,0,0,.31h2.81a1.61,1.61,0,0,0,0-.31A1.44,1.44,0,0,0,135,145.35Z"/><path class="cls-2" d="M138.57,141.75a1.44,1.44,0,1,0,1.44,1.44A1.46,1.46,0,0,0,138.57,141.75Z"/><path class="cls-2" d="M145.77,141.75a1.44,1.44,0,1,0,1.44,1.44A1.46,1.46,0,0,0,145.77,141.75Z"/><path class="cls-2" d="M142.17,131a1.44,1.44,0,1,0,1.44,1.44A1.46,1.46,0,0,0,142.17,131Z"/><path class="cls-2" d="M135,131a1.44,1.44,0,1,0,1.44,1.44A1.46,1.46,0,0,0,135,131Z"/><path class="cls-2" d="M138.57,127.35A1.44,1.44,0,1,0,140,128.8v-.05A1.46,1.46,0,0,0,138.57,127.35Z"/><path class="cls-2" d="M145.77,127.35a1.44,1.44,0,1,0,1.44,1.44A1.46,1.46,0,0,0,145.77,127.35Z"/><path class="cls-2" d="M138.57,134.55A1.44,1.44,0,1,0,140,136,1.46,1.46,0,0,0,138.57,134.55Z"/><path class="cls-2" d="M145.77,134.55a1.44,1.44,0,1,0,1.44,1.44A1.46,1.46,0,0,0,145.77,134.55Z"/><path class="cls-2" d="M142.17,138.15a1.44,1.44,0,1,0,1.44,1.44A1.46,1.46,0,0,0,142.17,138.15Z"/><path class="cls-2" d="M135,138.15a1.44,1.44,0,1,0,1.44,1.44A1.46,1.46,0,0,0,135,138.15Z"/><path class="cls-2" d="M142.17,116.55a1.44,1.44,0,1,0,1.44,1.44A1.46,1.46,0,0,0,142.17,116.55Z"/><path class="cls-2" d="M135,116.55a1.44,1.44,0,1,0,1.44,1.44A1.46,1.46,0,0,0,135,116.55Z"/><path class="cls-2" d="M138.57,113a1.44,1.44,0,1,0,1.44,1.44A1.46,1.46,0,0,0,138.57,113Z"/><path class="cls-2" d="M145.77,113a1.44,1.44,0,1,0,1.44,1.44A1.46,1.46,0,0,0,145.77,113Z"/><path class="cls-2" d="M138.57,120.15a1.44,1.44,0,1,0,1.44,1.44A1.46,1.46,0,0,0,138.57,120.15Z"/><path class="cls-2" d="M145.77,120.15a1.44,1.44,0,1,0,1.44,1.44A1.46,1.46,0,0,0,145.77,120.15Z"/><path class="cls-2" d="M142.17,123.75a1.44,1.44,0,1,0,1.44,1.44A1.46,1.46,0,0,0,142.17,123.75Z"/><path class="cls-2" d="M135,123.75a1.44,1.44,0,1,0,1.44,1.44A1.46,1.46,0,0,0,135,123.75Z"/><path class="cls-2" d="M138.57,108.63a1.42,1.42,0,0,0,1.37-1.86,13.7,13.7,0,0,0-2.45-.52,1.41,1.41,0,0,0-.36.94,1.43,1.43,0,0,0,1.44,1.44Z"/><path class="cls-2" d="M142.17,109.35a1.44,1.44,0,1,0,1.44,1.44A1.46,1.46,0,0,0,142.17,109.35Z"/><path class="cls-2" d="M135,109.35a1.44,1.44,0,1,0,1.44,1.44A1.46,1.46,0,0,0,135,109.35Z"/><path class="cls-2" d="M147.93,146.75a1.43,1.43,0,0,0,1.44,1.44h0a1.48,1.48,0,0,0,.62-.14v-2.59a1.32,1.32,0,0,0-.62-.15A1.46,1.46,0,0,0,147.93,146.75Z"/><path class="cls-2" d="M147.93,132.39a1.43,1.43,0,0,0,1.44,1.44h0a1.48,1.48,0,0,0,.62-.14V131.1a1.32,1.32,0,0,0-.62-.15A1.46,1.46,0,0,0,147.93,132.39Z"/><path class="cls-2" d="M147.93,139.59a1.43,1.43,0,0,0,1.44,1.44h0a1.48,1.48,0,0,0,.62-.14V138.3a1.32,1.32,0,0,0-.62-.15A1.46,1.46,0,0,0,147.93,139.59Z"/><path class="cls-2" d="M147.93,118a1.43,1.43,0,0,0,1.44,1.44h0a1.56,1.56,0,0,0,.57-.11,13.66,13.66,0,0,0-.49-2.76h-.08A1.45,1.45,0,0,0,147.93,118Z"/><path class="cls-2" d="M147.93,125.19a1.43,1.43,0,0,0,1.44,1.44h0a1.48,1.48,0,0,0,.62-.14V123.9a1.32,1.32,0,0,0-.62-.15A1.46,1.46,0,0,0,147.93,125.19Z"/><path class="cls-3" d="M150,149.12A14.35,14.35,0,0,1,155.84,167l.48.1a14.3,14.3,0,0,0,22.29-11.86V77.9a14.31,14.31,0,0,1,28.61,0V189.24a47.15,47.15,0,0,1-47.16,47.16H140a47.15,47.15,0,0,1-47.16-47.16h0V163.9a16.79,16.79,0,0,1,16.78-16.8H142.7A14.23,14.23,0,0,1,150,149.12Z"/><path class="cls-3" d="M121.4,132.41V147.1H109.59a16.79,16.79,0,0,0-16.8,16.78v-86a14.31,14.31,0,0,1,28.61,0Z"/><path class="cls-4" d="M207.21,132.41v56.83a47.15,47.15,0,0,1-47.16,47.16H140a47.15,47.15,0,0,1-47.16-47.16h0V132.41"/><path class="cls-4" d="M92.79,132.41V77.9a14.31,14.31,0,0,1,28.61,0v42.53"/><path class="cls-4" d="M178.6,120.43V77.9a14.31,14.31,0,0,1,28.61,0v54.51"/><path class="cls-4" d="M121.4,147.1V120.43a14.3,14.3,0,0,1,28.59-.76c0,.26,0,.51,0,.76"/><path class="cls-4" d="M150,149.14V120.43a14.31,14.31,0,0,1,28.61,0v34.79a14.3,14.3,0,0,1-22.29,11.86"/><path class="cls-4" d="M92.79,163.9a16.79,16.79,0,0,1,16.78-16.8h33.08a14.3,14.3,0,0,1,0,28.6H120.39"/><path class="cls-4" d="M136.85,175.75a15.47,15.47,0,0,1,15.47,15.47h0v10.05"/></svg>