<svg id="Capa_1" data-name="Capa 1" xmlns="http://www.w3.org/2000/svg" viewBox="0 0 300 300"><defs><style>.cls-1{fill:#40dcff;}.cls-2{fill:#fff;}.cls-3{fill:#009fff;}.cls-4{fill:none;stroke:#262626;stroke-linecap:round;stroke-linejoin:round;stroke-width:4px;}.cls-5{fill:#262626;}</style></defs><path class="cls-1" d="M150,300h0A150,150,0,0,1,0,150H0A150,150,0,0,1,150,0h0A150,150,0,0,1,300,150h0A150,150,0,0,1,150,300Z"/><path class="cls-1" d="M186.32,182.28a28,28,0,0,1,6.88-.86,27.41,27.41,0,1,1-6.88.86Zm6.88,38.41a11.79,11.79,0,1,0-11.78-11.8v0A11.8,11.8,0,0,0,193.2,220.69Z"/><path class="cls-2" d="M114.36,182.47a27.52,27.52,0,1,1-7.56-1.05A27.52,27.52,0,0,1,114.36,182.47Zm-7.56,38.22A11.79,11.79,0,1,0,95,208.91h0A11.79,11.79,0,0,0,106.8,220.69Z"/><path class="cls-3" d="M169.42,222.38h-.16c.35.63.73,1.25,1.13,1.84a1.18,1.18,0,0,0-.23-1.64,1.25,1.25,0,0,0-.77-.23Z"/><path class="cls-3" d="M172.42,219.38a1.2,1.2,0,1,0,1.2,1.2,1.2,1.2,0,0,0-1.2-1.2Z"/><path class="cls-3" d="M173.62,226.58a1.19,1.19,0,0,0-2.1-.78c.48.62,1,1.21,1.52,1.79A1.23,1.23,0,0,0,173.62,226.58Z"/><path class="cls-3" d="M169.42,210.38a1.2,1.2,0,1,0,1.2,1.2,1.2,1.2,0,0,0-1.2-1.2Z"/><path class="cls-3" d="M167.62,208.58a1.2,1.2,0,0,0-1.2-1.2h0a1.19,1.19,0,0,0-.68.24v1.91a1.16,1.16,0,0,0,1.88-.95Z"/><path class="cls-3" d="M172.42,207.38a1.2,1.2,0,1,0,1.2,1.2,1.2,1.2,0,0,0-1.2-1.2Z"/><path class="cls-3" d="M167.62,214.58a1.2,1.2,0,0,0-1.2-1.2h0a.93.93,0,0,0-.33.07c.13.77.28,1.54.48,2.3A1.2,1.2,0,0,0,167.62,214.58Z"/><path class="cls-3" d="M172.42,213.38a1.2,1.2,0,1,0,1.2,1.2,1.2,1.2,0,0,0-1.2-1.2Z"/><path class="cls-3" d="M169.42,216.38a1.2,1.2,0,1,0,1.2,1.2,1.2,1.2,0,0,0-1.2-1.2Z"/><path class="cls-3" d="M169.42,198.38a1.2,1.2,0,1,0,1.2,1.2,1.2,1.2,0,0,0-1.2-1.2Z"/><path class="cls-3" d="M172.42,195.38a1.2,1.2,0,1,0,1.2,1.2,1.2,1.2,0,0,0-1.2-1.2Z"/><path class="cls-3" d="M167.62,202.58a1.19,1.19,0,0,0-.88-1.14c-.21.75-.39,1.52-.54,2.29a.81.81,0,0,0,.22,0A1.21,1.21,0,0,0,167.62,202.58Z"/><path class="cls-3" d="M172.42,201.38a1.2,1.2,0,1,0,1.2,1.2,1.2,1.2,0,0,0-1.2-1.2Z"/><path class="cls-3" d="M169.42,204.38a1.2,1.2,0,1,0,1.2,1.2,1.2,1.2,0,0,0-1.2-1.2Z"/><path class="cls-3" d="M173.62,190.58a1.13,1.13,0,0,0-.25-.7c-.53.55-1,1.13-1.53,1.73a1.22,1.22,0,0,0,.58.17,1.2,1.2,0,0,0,1.2-1.2Z"/><path class="cls-3" d="M170.62,193.58a1.22,1.22,0,0,0,0-.27c-.32.46-.63.94-.93,1.42A1.17,1.17,0,0,0,170.62,193.58Z"/><path class="cls-3" d="M178.42,231.38a1.19,1.19,0,0,0-.7.25c.61.41,1.23.79,1.86,1.15v-.2A1.2,1.2,0,0,0,178.42,231.38Z"/><path class="cls-3" d="M184.42,231.38a1.2,1.2,0,1,0,1.2,1.2,1.2,1.2,0,0,0-1.2-1.2Z"/><path class="cls-3" d="M181.42,188.75a1.2,1.2,0,1,0-1.2-1.2,1.2,1.2,0,0,0,1.2,1.2Z"/><path class="cls-3" d="M176.62,187.58a1.13,1.13,0,0,0-.12-.51c-.6.47-1.2,1-1.76,1.47a1.17,1.17,0,0,0,1.88-1Z"/><path class="cls-3" d="M179.51,185.07c-.39.22-.77.46-1.14.7h0A1.18,1.18,0,0,0,179.51,185.07Z"/><path class="cls-3" d="M184.42,185.75a1.2,1.2,0,1,0-1.2-1.2,1.2,1.2,0,0,0,1.2,1.2Z"/><path class="cls-3" d="M178.42,189.38a1.2,1.2,0,1,0,1.2,1.2,1.2,1.2,0,0,0-1.2-1.2Z"/><path class="cls-3" d="M184.42,191.75a1.2,1.2,0,1,0-1.2-1.2,1.2,1.2,0,0,0,1.2,1.2Z"/><path class="cls-3" d="M193.42,234.38a1.19,1.19,0,0,0-1.2,1.18,1.17,1.17,0,0,0,.32.82h1.77a1.15,1.15,0,0,0,.31-.79,1.2,1.2,0,0,0-1.19-1.21Z"/><path class="cls-3" d="M187.42,234.38a1.19,1.19,0,0,0-1.18,1.13c.75.19,1.52.35,2.3.49a1.19,1.19,0,0,0-1.12-1.62Z"/><path class="cls-3" d="M190.42,231.38a1.2,1.2,0,1,0,1.2,1.2,1.2,1.2,0,0,0-1.2-1.2Z"/><path class="cls-3" d="M196.42,231.38a1.2,1.2,0,1,0,1.2,1.2,1.2,1.2,0,0,0-1.2-1.2Z"/><path class="cls-3" d="M193.42,188.75a1.2,1.2,0,1,0-1.2-1.2,1.2,1.2,0,0,0,1.2,1.2Z"/><path class="cls-3" d="M187.42,188.75a1.2,1.2,0,1,0-1.2-1.2,1.2,1.2,0,0,0,1.2,1.2Z"/><path class="cls-3" d="M190.42,185.75a1.2,1.2,0,1,0-1.2-1.2,1.2,1.2,0,0,0,1.2,1.2Z"/><path class="cls-3" d="M196.42,185.75a1.2,1.2,0,1,0-1.2-1.2,1.2,1.2,0,0,0,1.2,1.2Z"/><path class="cls-3" d="M190.42,191.75a1.2,1.2,0,1,0-1.2-1.2,1.2,1.2,0,0,0,1.2,1.2Z"/><path class="cls-3" d="M196.42,191.75a1.2,1.2,0,1,0-1.2-1.2,1.2,1.2,0,0,0,1.2,1.2Z"/><path class="cls-3" d="M193.42,182.75a1.2,1.2,0,0,0,1.2-1.2h0v-.12h-2.4v.14A1.2,1.2,0,0,0,193.42,182.75Z"/><path class="cls-3" d="M187.42,182.75a1.2,1.2,0,0,0,1.16-1c-.72.12-1.43.27-2.12.44A1.15,1.15,0,0,0,187.42,182.75Z"/><path class="cls-3" d="M199.42,234.38a1.2,1.2,0,0,0-1.2,1.2h0a1.28,1.28,0,0,0,.07.34c.78-.14,1.54-.32,2.29-.53A1.17,1.17,0,0,0,199.42,234.38Z"/><path class="cls-3" d="M202.42,231.38a1.2,1.2,0,1,0,1.2,1.2,1.2,1.2,0,0,0-1.2-1.2Z"/><path class="cls-3" d="M207.23,232.55c.57-.34,1.12-.7,1.66-1.08a1.21,1.21,0,0,0-1.57.65A1,1,0,0,0,207.23,232.55Z"/><path class="cls-3" d="M205.42,186.38a1.2,1.2,0,1,0,1.2,1.2,1.2,1.2,0,0,0-1.2-1.2Z"/><path class="cls-3" d="M199.42,188.75a1.2,1.2,0,1,0-1.2-1.2,1.2,1.2,0,0,0,1.2,1.2Z"/><path class="cls-3" d="M202.42,185.75a1.2,1.2,0,1,0-1.2-1.2,1.2,1.2,0,0,0,1.2,1.2Z"/><path class="cls-3" d="M202.42,191.75a1.2,1.2,0,1,0-1.2-1.2,1.2,1.2,0,0,0,1.2,1.2Z"/><path class="cls-3" d="M208.42,189.38a1.2,1.2,0,1,0,1.2,1.2h0A1.2,1.2,0,0,0,208.42,189.38Z"/><path class="cls-3" d="M199.42,182.75a1.2,1.2,0,0,0,.9-.42c-.67-.18-1.35-.33-2-.46A1.19,1.19,0,0,0,199.42,182.75Z"/><path class="cls-3" d="M216.22,223.58a1.1,1.1,0,0,0,.06.26c.29-.46.58-.92.85-1.4A1.18,1.18,0,0,0,216.22,223.58Z"/><path class="cls-3" d="M214.42,221.75a1.2,1.2,0,1,0-1.2-1.2h0A1.2,1.2,0,0,0,214.42,221.75Z"/><path class="cls-3" d="M213.22,226.58a1.18,1.18,0,0,0,.33.81c.53-.58,1-1.18,1.5-1.81a1.1,1.1,0,0,0-.63-.2A1.2,1.2,0,0,0,213.22,226.58Z"/><path class="cls-3" d="M217.42,212.75a1.2,1.2,0,1,0-1.2-1.2h0A1.2,1.2,0,0,0,217.42,212.75Z"/><path class="cls-3" d="M214.42,209.75a1.2,1.2,0,1,0-1.2-1.2h0A1.2,1.2,0,0,0,214.42,209.75Z"/><path class="cls-3" d="M219.22,208.58a1.2,1.2,0,0,0,1.2,1.2h.25v-2.3a.86.86,0,0,0-.23,0A1.2,1.2,0,0,0,219.22,208.58Z"/><path class="cls-3" d="M214.42,215.75a1.2,1.2,0,1,0-1.2-1.2h0A1.2,1.2,0,0,0,214.42,215.75Z"/><path class="cls-3" d="M219.22,214.58a1.19,1.19,0,0,0,.64,1c.19-.73.34-1.47.46-2.22A1.19,1.19,0,0,0,219.22,214.58Z"/><path class="cls-3" d="M217.42,218.75a1.2,1.2,0,1,0-1.2-1.2h0A1.2,1.2,0,0,0,217.42,218.75Z"/><path class="cls-3" d="M217.42,200.75a1.2,1.2,0,1,0-1.2-1.2h0A1.2,1.2,0,0,0,217.42,200.75Z"/><path class="cls-3" d="M214.42,197.75a1.2,1.2,0,1,0-1.2-1.2h0A1.2,1.2,0,0,0,214.42,197.75Z"/><path class="cls-3" d="M214.42,203.75a1.2,1.2,0,1,0-1.2-1.2h0A1.2,1.2,0,0,0,214.42,203.75Z"/><path class="cls-3" d="M219.22,202.58a1.18,1.18,0,0,0,1,1.15c-.14-.71-.3-1.41-.49-2.09A1.17,1.17,0,0,0,219.22,202.58Z"/><path class="cls-3" d="M217.42,206.75a1.2,1.2,0,1,0-1.2-1.2h0A1.2,1.2,0,0,0,217.42,206.75Z"/><path class="cls-3" d="M211.42,188.75a1.35,1.35,0,0,0,.4-.08c-.5-.47-1-.92-1.55-1.35a.89.89,0,0,0,0,.23A1.21,1.21,0,0,0,211.42,188.75Z"/><path class="cls-3" d="M214.42,191.75h.24c-.43-.54-.89-1.06-1.36-1.56a1.42,1.42,0,0,0-.08.41A1.21,1.21,0,0,0,214.42,191.75Z"/><path class="cls-3" d="M216.31,194a1,1,0,0,0,.17.28Z"/><path class="cls-3" d="M181.42,222.38a1.2,1.2,0,1,0,1.2,1.2,1.2,1.2,0,0,0-1.2-1.2Z"/><path class="cls-3" d="M175.42,222.38a1.2,1.2,0,1,0,1.2,1.2,1.2,1.2,0,0,0-1.2-1.2Z"/><path class="cls-3" d="M178.42,219.38a1.2,1.2,0,1,0,1.2,1.2,1.2,1.2,0,0,0-1.2-1.2Z"/><path class="cls-3" d="M184.42,219.38a1.2,1.2,0,1,0,1.2,1.2,1.2,1.2,0,0,0-1.2-1.2Z"/><path class="cls-3" d="M178.42,225.38a1.2,1.2,0,1,0,1.2,1.2,1.2,1.2,0,0,0-1.2-1.2Z"/><path class="cls-3" d="M184.42,225.38a1.2,1.2,0,1,0,1.2,1.2,1.2,1.2,0,0,0-1.2-1.2Z"/><path class="cls-3" d="M181.42,228.38a1.2,1.2,0,1,0,1.2,1.2,1.2,1.2,0,0,0-1.2-1.2Z"/><path class="cls-3" d="M176.62,229.58a1.2,1.2,0,0,0-1.2-1.2h0a1.19,1.19,0,0,0-1,.59c.57.53,1.16,1,1.77,1.52A1.18,1.18,0,0,0,176.62,229.58Z"/><path class="cls-3" d="M181.42,210.38a1.2,1.2,0,0,0,0,2.4h0a1.27,1.27,0,0,0,.6-.18,11.12,11.12,0,0,1-.5-2.2Z"/><path class="cls-3" d="M175.42,210.38a1.2,1.2,0,1,0,1.2,1.2,1.2,1.2,0,0,0-1.2-1.2Z"/><path class="cls-3" d="M178.42,207.38a1.2,1.2,0,1,0,1.2,1.2,1.2,1.2,0,0,0-1.2-1.2Z"/><path class="cls-3" d="M178.42,213.38a1.2,1.2,0,1,0,1.2,1.2,1.2,1.2,0,0,0-1.2-1.2Z"/><path class="cls-3" d="M181.42,216.38a1.2,1.2,0,1,0,1.2,1.2,1.2,1.2,0,0,0-1.2-1.2Z"/><path class="cls-3" d="M175.42,216.38a1.2,1.2,0,1,0,1.2,1.2,1.2,1.2,0,0,0-1.2-1.2Z"/><path class="cls-3" d="M181.42,194.75a1.2,1.2,0,1,0-1.2-1.2,1.2,1.2,0,0,0,1.2,1.2Z"/><path class="cls-3" d="M175.42,192.38a1.2,1.2,0,1,0,1.2,1.2,1.2,1.2,0,0,0-1.2-1.2Z"/><path class="cls-3" d="M181.42,200.75a1.2,1.2,0,1,0-1.2-1.2,1.2,1.2,0,0,0,1.2,1.2Z"/><path class="cls-3" d="M175.42,198.38a1.2,1.2,0,1,0,1.2,1.2,1.2,1.2,0,0,0-1.2-1.2Z"/><path class="cls-3" d="M178.42,195.38a1.2,1.2,0,1,0,1.2,1.2,1.2,1.2,0,0,0-1.2-1.2Z"/><path class="cls-3" d="M184.42,197.75a1.2,1.2,0,1,0-1.2-1.2,1.2,1.2,0,0,0,1.2,1.2Z"/><path class="cls-3" d="M178.42,201.38a1.2,1.2,0,1,0,1.2,1.2,1.2,1.2,0,0,0-1.2-1.2Z"/><path class="cls-3" d="M183.22,202.58v.06a12.28,12.28,0,0,1,.85-1.19A1.19,1.19,0,0,0,183.22,202.58Z"/><path class="cls-3" d="M181.42,204.38a1.2,1.2,0,0,0,0,2.4h.21a13.33,13.33,0,0,1,.59-2.05A1.18,1.18,0,0,0,181.42,204.38Z"/><path class="cls-3" d="M175.42,204.38a1.2,1.2,0,1,0,1.2,1.2,1.2,1.2,0,0,0-1.2-1.2Z"/><path class="cls-3" d="M193.42,222.38a1.2,1.2,0,1,0,1.2,1.2,1.2,1.2,0,0,0-1.2-1.2Z"/><path class="cls-3" d="M187.42,222.38a1.2,1.2,0,1,0,1.2,1.2,1.2,1.2,0,0,0-1.2-1.2Z"/><path class="cls-3" d="M189.22,220.58a1.2,1.2,0,1,0,2.4,0h0a11.6,11.6,0,0,1-2.26-.53A1.19,1.19,0,0,0,189.22,220.58Z"/><path class="cls-3" d="M195.22,220.58a1.2,1.2,0,1,0,2.4,0,1.09,1.09,0,0,0-.23-.67,12.45,12.45,0,0,1-2.15.59A.29.29,0,0,0,195.22,220.58Z"/><path class="cls-3" d="M190.42,225.38a1.2,1.2,0,1,0,1.2,1.2,1.2,1.2,0,0,0-1.2-1.2Z"/><path class="cls-3" d="M196.42,225.38a1.2,1.2,0,1,0,1.2,1.2,1.2,1.2,0,0,0-1.2-1.2Z"/><path class="cls-3" d="M193.42,228.38a1.2,1.2,0,1,0,1.2,1.2,1.2,1.2,0,0,0-1.2-1.2Z"/><path class="cls-3" d="M187.42,228.38a1.2,1.2,0,1,0,1.2,1.2,1.2,1.2,0,0,0-1.2-1.2Z"/><path class="cls-3" d="M193.42,194.75a1.2,1.2,0,1,0-1.2-1.2,1.2,1.2,0,0,0,1.2,1.2Z"/><path class="cls-3" d="M187.42,194.75a1.2,1.2,0,1,0-1.2-1.2,1.2,1.2,0,0,0,1.2,1.2Z"/><path class="cls-3" d="M187.42,198.38a1.18,1.18,0,0,0-1.16,1,12.49,12.49,0,0,1,1.52-.95A.9.9,0,0,0,187.42,198.38Z"/><path class="cls-3" d="M191.62,196.58a1.2,1.2,0,1,0-2.4,0h0a1.15,1.15,0,0,0,.63,1,13.28,13.28,0,0,1,1.52-.33A1.17,1.17,0,0,0,191.62,196.58Z"/><path class="cls-3" d="M197.62,196.58a1.2,1.2,0,0,0-2.4,0h0a1.13,1.13,0,0,0,.31.78,9.41,9.41,0,0,1,1.29.34A1.18,1.18,0,0,0,197.62,196.58Z"/><path class="cls-3" d="M205.42,222.38a1.2,1.2,0,1,0,1.2,1.2,1.2,1.2,0,0,0-1.2-1.2Z"/><path class="cls-3" d="M199.42,222.38a1.2,1.2,0,1,0,1.2,1.2,1.2,1.2,0,0,0-1.2-1.2Z"/><path class="cls-3" d="M202.42,219.38a1.2,1.2,0,1,0,1.2,1.2,1.2,1.2,0,0,0-1.2-1.2Z"/><path class="cls-3" d="M208.42,219.38a1.2,1.2,0,1,0,1.2,1.2h0A1.2,1.2,0,0,0,208.42,219.38Z"/><path class="cls-3" d="M202.42,225.38a1.2,1.2,0,1,0,1.2,1.2,1.2,1.2,0,0,0-1.2-1.2Z"/><path class="cls-3" d="M208.42,225.38a1.2,1.2,0,1,0,1.2,1.2h0A1.2,1.2,0,0,0,208.42,225.38Z"/><path class="cls-3" d="M211.42,222.38a1.2,1.2,0,1,0,1.2,1.2h0A1.2,1.2,0,0,0,211.42,222.38Z"/><path class="cls-3" d="M205.42,228.38a1.2,1.2,0,1,0,1.2,1.2,1.2,1.2,0,0,0-1.2-1.2Z"/><path class="cls-3" d="M199.42,228.38a1.2,1.2,0,1,0,1.2,1.2,1.2,1.2,0,0,0-1.2-1.2Z"/><path class="cls-3" d="M210.22,229.58a1.18,1.18,0,0,0,.26.7,23.51,23.51,0,0,0,1.77-1.56,1.2,1.2,0,0,0-1.69.09,1.23,1.23,0,0,0-.31.77Z"/><path class="cls-3" d="M205.42,212.75a1.2,1.2,0,1,0-.56-2.24,11.61,11.61,0,0,1-.38,1.75A1.21,1.21,0,0,0,205.42,212.75Z"/><path class="cls-3" d="M208.42,207.38a1.2,1.2,0,1,0,1.2,1.2h0A1.2,1.2,0,0,0,208.42,207.38Z"/><path class="cls-3" d="M203.62,214.58v-.13a14.54,14.54,0,0,1-.78,1.25A1.19,1.19,0,0,0,203.62,214.58Z"/><path class="cls-3" d="M208.42,213.38a1.2,1.2,0,1,0,1.2,1.2h0A1.2,1.2,0,0,0,208.42,213.38Z"/><path class="cls-3" d="M211.42,210.38a1.2,1.2,0,1,0,1.2,1.2h0A1.2,1.2,0,0,0,211.42,210.38Z"/><path class="cls-3" d="M205.42,216.38a1.2,1.2,0,1,0,1.2,1.2,1.2,1.2,0,0,0-1.2-1.2Z"/><path class="cls-3" d="M200.42,218.2c-.23.18-.46.36-.7.52A1.14,1.14,0,0,0,200.42,218.2Z"/><path class="cls-3" d="M211.42,216.38a1.2,1.2,0,1,0,1.2,1.2h0A1.2,1.2,0,0,0,211.42,216.38Z"/><path class="cls-3" d="M205.42,192.38a1.2,1.2,0,1,0,1.2,1.2,1.2,1.2,0,0,0-1.2-1.2Z"/><path class="cls-3" d="M199.42,194.75a1.2,1.2,0,1,0-1.2-1.2,1.2,1.2,0,0,0,1.2,1.2Z"/><path class="cls-3" d="M205.42,198.38a1.2,1.2,0,1,0,1.2,1.2,1.2,1.2,0,0,0-1.2-1.2Z"/><path class="cls-3" d="M200.62,199.58a1.2,1.2,0,0,0-1.2-1.2h0a1.13,1.13,0,0,0-.59.18,11.51,11.51,0,0,1,1.76,1.18Z"/><path class="cls-3" d="M202.42,197.75a1.2,1.2,0,1,0-1.2-1.2,1.2,1.2,0,0,0,1.2,1.2Z"/><path class="cls-3" d="M208.42,195.38a1.2,1.2,0,1,0,1.2,1.2h0A1.2,1.2,0,0,0,208.42,195.38Z"/><path class="cls-3" d="M203.62,202.58a1.2,1.2,0,0,0-1.2-1.2h-.13a12,12,0,0,1,1.18,1.73A1.2,1.2,0,0,0,203.62,202.58Z"/><path class="cls-3" d="M208.42,201.38a1.2,1.2,0,1,0,1.2,1.2h0A1.2,1.2,0,0,0,208.42,201.38Z"/><path class="cls-3" d="M211.42,192.38a1.2,1.2,0,1,0,1.2,1.2h0A1.2,1.2,0,0,0,211.42,192.38Z"/><path class="cls-3" d="M211.42,198.38a1.2,1.2,0,1,0,1.2,1.2h0A1.2,1.2,0,0,0,211.42,198.38Z"/><path class="cls-3" d="M206.62,205.58a1.19,1.19,0,0,0-2.28-.5,15.09,15.09,0,0,1,.41,1.46,1.16,1.16,0,0,0,.67.24,1.2,1.2,0,0,0,1.2-1.2Z"/><path class="cls-3" d="M211.42,204.38a1.2,1.2,0,1,0,1.2,1.2h0A1.2,1.2,0,0,0,211.42,204.38Z"/><path class="cls-1" d="M130.37,161.34l1.09-.91,17.14,20.32-.8.66-13.51,15.7-2.19,1a27.58,27.58,0,0,0-17.74-15.65l.3-1.05Zm18.41-24.13,17.36,22.17,1.94-1.52,32.48-37.74c13.6-15,16.21-38.32,6.3-56.52L150,136.25Z"/><path class="cls-3" d="M134.05,195.83a1.43,1.43,0,0,1,1.75-.46l-1.51,1.75-.37.17A1.42,1.42,0,0,1,134.05,195.83Z"/><path class="cls-3" d="M142.51,184.18a1.43,1.43,0,0,1,2-.33,1.39,1.39,0,0,1,.55.77l-1.57,1.83a1.38,1.38,0,0,1-.65-.26A1.44,1.44,0,0,1,142.51,184.18Z"/><path class="cls-3" d="M138.28,190a1.44,1.44,0,0,1,2-.32h0a2.09,2.09,0,0,1,.22.2l-1.85,2.16h-.06a1.42,1.42,0,0,1-.34-2Z"/><path class="cls-3" d="M147.06,180.37a1.44,1.44,0,0,1-.39-1.89l1.75,2.07A1.47,1.47,0,0,1,147.06,180.37Z"/><path class="cls-3" d="M128.22,191.6a1.44,1.44,0,0,1,2.33,1.69,1.39,1.39,0,0,1-.77.53c-.49-.75-1-1.47-1.58-2.17A.17.17,0,0,1,128.22,191.6Z"/><path class="cls-3" d="M124.41,187.05a1.48,1.48,0,0,1,.59,1.25c-.59-.52-1.2-1-1.83-1.47A1.44,1.44,0,0,1,124.41,187.05Z"/><path class="cls-3" d="M133.67,180.43a1.44,1.44,0,1,1-1.68,2.34,1.45,1.45,0,0,1-.33-2h0A1.44,1.44,0,0,1,133.67,180.43Z"/><path class="cls-3" d="M139.49,184.66a1.44,1.44,0,0,1-1.61,2.39l-.08-.06a1.46,1.46,0,0,1-.32-2,1.43,1.43,0,0,1,2-.34Z"/><path class="cls-3" d="M138.7,179.63A1.44,1.44,0,1,1,137,182a1.45,1.45,0,0,1-.33-2h0A1.46,1.46,0,0,1,138.7,179.63Z"/><path class="cls-3" d="M130.86,175.75a1.44,1.44,0,1,1,2.34,1.68,1.45,1.45,0,0,1-2,.33h0a1.44,1.44,0,0,1-.32-2Z"/><path class="cls-3" d="M134.47,185.46a1.44,1.44,0,1,1-2,.31,1.45,1.45,0,0,1,2-.31Z"/><path class="cls-3" d="M129,183.24a1.44,1.44,0,0,1-2.34-1.68,1.45,1.45,0,0,1,2-.33h0A1.44,1.44,0,0,1,129,183.24Z"/><path class="cls-3" d="M129.44,186.25a1.44,1.44,0,0,1-1.68,2.34,1.45,1.45,0,0,1-.33-2h0A1.46,1.46,0,0,1,129.44,186.25Z"/><path class="cls-3" d="M135.26,190.48a1.44,1.44,0,0,1-1.68,2.34,1.45,1.45,0,0,1-.33-2h0A1.44,1.44,0,0,1,135.26,190.48Z"/><path class="cls-3" d="M140,170.54l.5.59h0A1.43,1.43,0,0,1,140,170.54Z"/><path class="cls-3" d="M143.25,175.82a1.44,1.44,0,1,1-.66-2.19l.9,1.07A1.44,1.44,0,0,1,143.25,175.82Z"/><path class="cls-3" d="M135.41,171.9a1.44,1.44,0,1,1,2-.32h0A1.44,1.44,0,0,1,135.41,171.9Z"/><path class="cls-3" d="M135.89,174.92a1.42,1.42,0,1,1-.06.08Z"/><path class="cls-3" d="M143.73,178.83a1.44,1.44,0,0,1-1.68,2.34,1.45,1.45,0,0,1-.33-2h0A1.46,1.46,0,0,1,143.73,178.83Z"/><path class="cls-3" d="M118.58,182.82a1.42,1.42,0,0,1,.55,1.52c-.84-.42-1.71-.8-2.6-1.14v-.06a1.43,1.43,0,0,1,2-.36Z"/><path class="cls-3" d="M122.34,174a1.44,1.44,0,0,1-2,.32h0l-.06,0,1.77-2.26A1.44,1.44,0,0,1,122.34,174Z"/><path class="cls-3" d="M126.15,178.53a1.46,1.46,0,0,1-.32-2,1.44,1.44,0,0,1,2.34,1.68,1.45,1.45,0,0,1-2,.33Z"/><path class="cls-3" d="M125.35,173.5a1.44,1.44,0,1,1,1.68-2.34,1.45,1.45,0,0,1,.33,2h0A1.46,1.46,0,0,1,125.35,173.5Z"/><path class="cls-3" d="M121.12,179.32A1.44,1.44,0,1,1,122.8,177a1.45,1.45,0,0,1,.33,2h0a1.44,1.44,0,0,1-2,.32Z"/><path class="cls-3" d="M118.11,179.8a1.46,1.46,0,0,1-2,.32,1.75,1.75,0,0,1-.24-.23l1.74-2.22.2.12A1.46,1.46,0,0,1,118.11,179.8Z"/><path class="cls-3" d="M121.92,184.35A1.44,1.44,0,1,1,123.6,182a1.45,1.45,0,0,1,.33,2h0A1.44,1.44,0,0,1,121.92,184.35Z"/><path class="cls-3" d="M130.8,162.32a1.42,1.42,0,0,1-1.61.52l1.18-1.5.56-.47A1.4,1.4,0,0,1,130.8,162.32Z"/><path class="cls-3" d="M134.62,166.88a1.44,1.44,0,0,1-.32-2,1.41,1.41,0,0,1,.53-.44l1.8,2.14h0A1.46,1.46,0,0,1,134.62,166.88Z"/><path class="cls-3" d="M129.59,167.67a1.44,1.44,0,1,1,1.68-2.34,1.45,1.45,0,0,1,.33,2h0a1.44,1.44,0,0,1-2,.32Z"/><path class="cls-3" d="M126.57,168.15a1.44,1.44,0,0,1-1.85.41l1.74-2.23A1.42,1.42,0,0,1,126.57,168.15Z"/><path class="cls-3" d="M130.38,172.75a1.44,1.44,0,0,1,1.68-2.34,1.45,1.45,0,0,1,.33,2h0a1.44,1.44,0,0,1-2,.32Z"/><path class="cls-3" d="M168.7,154.26a1.44,1.44,0,0,1,2-.32,1.56,1.56,0,0,1,.39.42l-1.79,2.07a1.18,1.18,0,0,1-.29-.16A1.44,1.44,0,0,1,168.7,154.26Z"/><path class="cls-3" d="M169.91,148.91a1.44,1.44,0,0,1-1.61,2.39l-.08-.06a1.44,1.44,0,0,1,1.69-2.33Z"/><path class="cls-3" d="M163.67,155.06a1.44,1.44,0,1,1,.84,2.25l-1.11-1.43A1.44,1.44,0,0,1,163.67,155.06Z"/><path class="cls-3" d="M179.18,142.29a1.44,1.44,0,1,1-1.68,2.34,1.45,1.45,0,0,1-.33-2h0A1.44,1.44,0,0,1,179.18,142.29Z"/><path class="cls-3" d="M178.38,137.26a1.44,1.44,0,0,1-1.61,2.39l-.08-.06a1.44,1.44,0,0,1-.32-2h0A1.45,1.45,0,0,1,178.38,137.26Z"/><path class="cls-3" d="M174.15,143.09a1.44,1.44,0,1,1-1.68,2.34,1.45,1.45,0,0,1-.33-2h0a1.44,1.44,0,0,1,2-.32Z"/><path class="cls-3" d="M173.25,150.45a1.44,1.44,0,1,1,1.61-2.39l.08.06a1.43,1.43,0,0,1,.59,1.09l-1.29,1.5A1.51,1.51,0,0,1,173.25,150.45Z"/><path class="cls-3" d="M187.64,130.64A1.44,1.44,0,0,1,186,133a1.45,1.45,0,0,1-.33-2h0A1.44,1.44,0,0,1,187.64,130.64Z"/><path class="cls-3" d="M190.66,130.16a1.45,1.45,0,0,1,1.68-.49l-1.77,2.05A1.43,1.43,0,0,1,190.66,130.16Z"/><path class="cls-3" d="M186.84,125.61a1.44,1.44,0,1,1-1.68,2.34,1.45,1.45,0,0,1-.33-2h0A1.44,1.44,0,0,1,186.84,125.61Z"/><path class="cls-3" d="M186.42,136a1.48,1.48,0,0,1,1-.58l-1.25,1.45A1.5,1.5,0,0,1,186.42,136Z"/><path class="cls-3" d="M182.61,131.44a1.44,1.44,0,1,1-1.68,2.34,1.45,1.45,0,0,1-.33-2h0A1.44,1.44,0,0,1,182.61,131.44Z"/><path class="cls-3" d="M183.41,136.47a1.44,1.44,0,0,1-1.68,2.34,1.45,1.45,0,0,1-.33-2h0a1.44,1.44,0,0,1,2-.32Z"/><path class="cls-3" d="M196.1,119a1.44,1.44,0,0,1-1.68,2.34,1.45,1.45,0,0,1-.33-2h0A1.46,1.46,0,0,1,196.1,119Z"/><path class="cls-3" d="M199.12,118.51a1.44,1.44,0,0,1,2-.31,1.41,1.41,0,0,1,.51.67c-.35.42-.71.84-1.08,1.25l-.56.65a1.47,1.47,0,0,1-.56-.24A1.45,1.45,0,0,1,199.12,118.51Z"/><path class="cls-3" d="M195.31,114a1.44,1.44,0,1,1-2,.31A1.45,1.45,0,0,1,195.31,114Z"/><path class="cls-3" d="M194.89,124.34a1.44,1.44,0,0,1,2-.32l.17.15-1.87,2.17a1.42,1.42,0,0,1-.3-2Z"/><path class="cls-3" d="M191.08,119.75a1.44,1.44,0,1,1-1.68,2.34,1.45,1.45,0,0,1-.33-2h0A1.44,1.44,0,0,1,191.08,119.75Z"/><path class="cls-3" d="M191.87,124.82a1.44,1.44,0,1,1-1.68,2.34,1.45,1.45,0,0,1-.33-2h0A1.44,1.44,0,0,1,191.87,124.82Z"/><path class="cls-3" d="M204.57,107.34a1.44,1.44,0,0,1-1.68,2.34,1.45,1.45,0,0,1-.33-2h0A1.46,1.46,0,0,1,204.57,107.34Z"/><path class="cls-3" d="M207.58,106.86a1.44,1.44,0,0,1,1.58-.52c-.35.88-.73,1.75-1.14,2.6l-.12-.06A1.46,1.46,0,0,1,207.58,106.86Z"/><path class="cls-3" d="M203.77,102.31a1.44,1.44,0,1,1-1.61,2.39l-.08-.06a1.44,1.44,0,0,1-.32-2h0A1.45,1.45,0,0,1,203.77,102.31Z"/><path class="cls-3" d="M203.67,114.75a1.44,1.44,0,1,1,2.17-1.72c-.4.68-.83,1.34-1.26,2A1.47,1.47,0,0,1,203.67,114.75Z"/><path class="cls-3" d="M199.54,108.14a1.44,1.44,0,1,1-1.68,2.34,1.45,1.45,0,0,1-.33-2h0A1.44,1.44,0,0,1,199.54,108.14Z"/><path class="cls-3" d="M200.34,113.17a1.44,1.44,0,1,1-1.68,2.34,1.45,1.45,0,0,1-.33-2h0A1.44,1.44,0,0,1,200.34,113.17Z"/><path class="cls-3" d="M211,96a1.47,1.47,0,0,1,1.18-.59c-.15.93-.32,1.86-.52,2.78a2.21,2.21,0,0,1-.34-.18A1.44,1.44,0,0,1,211,96Z"/><path class="cls-3" d="M210.54,93a1.44,1.44,0,1,1,2.16-1.75,13.65,13.65,0,0,1-.14,1.42h0a1.44,1.44,0,0,1-2,.34Z"/><path class="cls-3" d="M208,96.49a1.44,1.44,0,0,1-1.68,2.34,1.45,1.45,0,0,1-.33-2h0a1.44,1.44,0,0,1,2-.32Z"/><path class="cls-3" d="M208.8,101.52a1.44,1.44,0,1,1-1.68,2.34,1.45,1.45,0,0,1-.33-2h0A1.44,1.44,0,0,1,208.8,101.52Z"/><path class="cls-3" d="M159.06,145.48a1.44,1.44,0,1,1-1.68,2.34,1.45,1.45,0,0,1-.33-2h0A1.44,1.44,0,0,1,159.06,145.48Z"/><path class="cls-3" d="M164.89,149.75a1.44,1.44,0,1,1-1.68,2.34,1.45,1.45,0,0,1-.33-2h0A1.46,1.46,0,0,1,164.89,149.75Z"/><path class="cls-3" d="M164.09,144.68a1.44,1.44,0,1,1-1.68,2.34,1.45,1.45,0,0,1-.33-2h0A1.44,1.44,0,0,1,164.09,144.68Z"/><path class="cls-3" d="M158.58,142.46a1.44,1.44,0,1,1-2.34-1.68,1.45,1.45,0,0,1,2-.33h0A1.44,1.44,0,0,1,158.58,142.46Z"/><path class="cls-3" d="M159.86,150.51a1.43,1.43,0,0,1,.54,1.54l-1.4-1.81A1.4,1.4,0,0,1,159.86,150.51Z"/><path class="cls-3" d="M167.84,135.84a1.44,1.44,0,1,1-.32-2h0A1.44,1.44,0,0,1,167.84,135.84Z"/><path class="cls-3" d="M173.35,138.06a1.44,1.44,0,0,1-1.68,2.34,1.45,1.45,0,0,1-.33-2h0A1.44,1.44,0,0,1,173.35,138.06Z"/><path class="cls-3" d="M170.54,133.35a1.44,1.44,0,0,1,2.34,1.68,1.45,1.45,0,0,1-2,.33h0A1.44,1.44,0,0,1,170.54,133.35Z"/><path class="cls-3" d="M165,131.13a1.44,1.44,0,1,1,1.68-2.34,1.45,1.45,0,0,1,.33,2h0a1.44,1.44,0,0,1-2,.32Z"/><path class="cls-3" d="M168.32,138.86a1.44,1.44,0,0,1,.32,2h0a1.44,1.44,0,1,1-2.39-1.61l.06-.08a1.44,1.44,0,0,1,2-.32Z"/><path class="cls-3" d="M160.8,137a1.44,1.44,0,1,1,2-.31A1.46,1.46,0,0,1,160.8,137Z"/><path class="cls-3" d="M163.61,141.66a1.44,1.44,0,1,1-2.39-1.61l.06-.08a1.46,1.46,0,0,1,2-.32,1.43,1.43,0,0,1,.34,2Z"/><path class="cls-3" d="M169.12,143.89a1.44,1.44,0,1,1-2,.32h0A1.44,1.44,0,0,1,169.12,143.89Z"/><path class="cls-3" d="M176.31,124.19a1.44,1.44,0,0,1-2.34-1.68,1.45,1.45,0,0,1,2-.33h0A1.44,1.44,0,0,1,176.31,124.19Z"/><path class="cls-3" d="M179.8,126.75a1.44,1.44,0,0,1,2.34,1.68,1.45,1.45,0,0,1-2,.33h0A1.44,1.44,0,0,1,179.8,126.75Z"/><path class="cls-3" d="M179.33,123.75a1.44,1.44,0,0,1,1.69-2.33,1.46,1.46,0,0,1,.32,2,1.43,1.43,0,0,1-2,.34Z"/><path class="cls-3" d="M173.5,119.48a1.44,1.44,0,1,1,1.68-2.34,1.45,1.45,0,0,1,.33,2h0A1.44,1.44,0,0,1,173.5,119.48Z"/><path class="cls-3" d="M174.77,127.53a1.44,1.44,0,1,1,2.34,1.68,1.45,1.45,0,0,1-2,.33h0A1.44,1.44,0,0,1,174.77,127.53Z"/><path class="cls-3" d="M169.27,125.3a1.44,1.44,0,1,1,2-.32h0A1.44,1.44,0,0,1,169.27,125.3Z"/><path class="cls-3" d="M172.08,130a1.44,1.44,0,1,1-2.34-1.68,1.45,1.45,0,0,1,2-.33h0A1.44,1.44,0,0,1,172.08,130Z"/><path class="cls-3" d="M177.58,132.24a1.44,1.44,0,0,1,.32,2h0a1.44,1.44,0,1,1-2.34-1.68,1.45,1.45,0,0,1,2-.33Z"/><path class="cls-3" d="M184.77,112.54a1.44,1.44,0,1,1-2.34-1.68,1.45,1.45,0,0,1,2-.33h0A1.44,1.44,0,0,1,184.77,112.54Z"/><path class="cls-3" d="M188.27,115.08a1.44,1.44,0,1,1,2.34,1.68,1.45,1.45,0,0,1-2,.33h0A1.44,1.44,0,0,1,188.27,115.08Z"/><path class="cls-3" d="M187.79,112.06a1.44,1.44,0,0,1,1.68-2.34,1.45,1.45,0,0,1,.33,2h0A1.44,1.44,0,0,1,187.79,112.06Z"/><path class="cls-3" d="M182,107.83a1.44,1.44,0,1,1,1.68-2.34,1.45,1.45,0,0,1,.33,2h0A1.44,1.44,0,0,1,182,107.83Z"/><path class="cls-3" d="M183.56,117.89a1.44,1.44,0,1,1,1.68-2.34,1.45,1.45,0,0,1,.33,2h0A1.46,1.46,0,0,1,183.56,117.89Z"/><path class="cls-3" d="M177.73,113.65a1.44,1.44,0,1,1,2-.32h0A1.44,1.44,0,0,1,177.73,113.65Z"/><path class="cls-3" d="M180.54,118.36a1.44,1.44,0,0,1-2.39-1.61l.06-.08a1.44,1.44,0,0,1,2.33,1.69Z"/><path class="cls-3" d="M184,120.9a1.44,1.44,0,1,1,2.33,1.7h0a1.44,1.44,0,1,1-2.33-1.7Z"/><path class="cls-3" d="M193.24,100.89a1.44,1.44,0,1,1-2.34-1.68,1.45,1.45,0,0,1,2-.33h0A1.44,1.44,0,0,1,193.24,100.89Z"/><path class="cls-3" d="M196.73,103.43a1.44,1.44,0,0,1,2.34,1.68,1.45,1.45,0,0,1-2,.33h0A1.44,1.44,0,0,1,196.73,103.43Z"/><path class="cls-3" d="M196.25,100.41a1.44,1.44,0,1,1,1.68-2.34,1.45,1.45,0,0,1,.33,2h0A1.46,1.46,0,0,1,196.25,100.41Z"/><path class="cls-3" d="M190.43,96.18a1.44,1.44,0,1,1,1.68-2.34,1.45,1.45,0,0,1,.33,2h0A1.44,1.44,0,0,1,190.43,96.18Z"/><path class="cls-3" d="M192,106.24a1.46,1.46,0,0,1-.32-2,1.44,1.44,0,0,1,2.33,1.69A1.46,1.46,0,0,1,192,106.24Z"/><path class="cls-3" d="M186.2,102a1.44,1.44,0,0,1-.32-2h0a1.44,1.44,0,1,1,2.34,1.68,1.45,1.45,0,0,1-2,.33Z"/><path class="cls-3" d="M189,106.75a1.44,1.44,0,0,1-2,.32h0a1.44,1.44,0,1,1,1.68-2.34,1.45,1.45,0,0,1,.33,2Z"/><path class="cls-3" d="M192.5,109.25a1.44,1.44,0,1,1,2.34,1.68,1.45,1.45,0,0,1-2,.33h0A1.44,1.44,0,0,1,192.5,109.25Z"/><path class="cls-3" d="M201.7,89.24a1.44,1.44,0,0,1-2.34-1.68,1.45,1.45,0,0,1,2-.33h0A1.44,1.44,0,0,1,201.7,89.24Z"/><path class="cls-3" d="M205.2,91.75a1.44,1.44,0,1,1,.32,2h0A1.44,1.44,0,0,1,205.2,91.75Z"/><path class="cls-3" d="M206.73,88.44a1.44,1.44,0,0,1-2.34-1.68,1.45,1.45,0,0,1,2-.33h0a1.44,1.44,0,0,1,.32,2Z"/><path class="cls-3" d="M198.89,84.53a1.44,1.44,0,0,1,1.68-2.34,1.45,1.45,0,0,1,.33,2h0A1.46,1.46,0,0,1,198.89,84.53Z"/><path class="cls-3" d="M200.49,94.59a1.44,1.44,0,1,1,1.61-2.39l.08.06a1.44,1.44,0,1,1-1.61,2.39Z"/><path class="cls-3" d="M194.66,90.36A1.44,1.44,0,0,1,196.27,88l.08.06a1.44,1.44,0,0,1,.32,2h0A1.45,1.45,0,0,1,194.66,90.36Z"/><path class="cls-3" d="M197.47,95.07a1.44,1.44,0,0,1-2.34-1.68,1.45,1.45,0,0,1,2-.33h0A1.44,1.44,0,0,1,197.47,95.07Z"/><path class="cls-3" d="M201,97.6a1.44,1.44,0,1,1,2.34,1.68,1.45,1.45,0,0,1-2,.33h0A1.46,1.46,0,0,1,201,97.6Z"/><path class="cls-3" d="M208.15,77.91a1.44,1.44,0,1,1,1.68-2.34,1.45,1.45,0,0,1,.33,2h0A1.46,1.46,0,0,1,208.15,77.91Z"/><path class="cls-3" d="M207.36,72.88A1.44,1.44,0,0,1,209,70.54a1.45,1.45,0,0,1,.33,2h0a1.44,1.44,0,0,1-2,.32Z"/><path class="cls-3" d="M209,82.94a1.44,1.44,0,1,1,1.68-2.34,1.45,1.45,0,0,1,.33,2h0A1.44,1.44,0,0,1,209,82.94Z"/><path class="cls-3" d="M203.12,78.75a1.44,1.44,0,1,1,1.68-2.34,1.45,1.45,0,0,1,.33,2h0A1.46,1.46,0,0,1,203.12,78.75Z"/><path class="cls-3" d="M205.93,83.42a1.44,1.44,0,1,1-2.34-1.68,1.45,1.45,0,0,1,2-.33h0A1.44,1.44,0,0,1,205.93,83.42Z"/><path class="cls-3" d="M209.43,86a1.44,1.44,0,1,1,2.34,1.68,1.45,1.45,0,0,1-2,.33h0A1.44,1.44,0,0,1,209.43,86Z"/><path class="cls-3" d="M153.24,141.25a1.46,1.46,0,0,1,.32,2h0l-1.71-2.19A1.44,1.44,0,0,1,153.24,141.25Z"/><path class="cls-3" d="M150.75,138.55a1.44,1.44,0,1,1,1.68-2.34,1.45,1.45,0,0,1,.33,2h0A1.46,1.46,0,0,1,150.75,138.55Z"/><path class="cls-3" d="M160,131.93a1.44,1.44,0,1,1,1.68-2.34,1.45,1.45,0,0,1,.33,2h0A1.44,1.44,0,0,1,160,131.93Z"/><path class="cls-3" d="M159.21,126.9a1.46,1.46,0,0,1-.32-2,1.44,1.44,0,0,1,2.34,1.68,1.45,1.45,0,0,1-2,.33Z"/><path class="cls-3" d="M155,132.75a1.44,1.44,0,1,1,1.68-2.34,1.45,1.45,0,0,1,.33,2h0A1.44,1.44,0,0,1,155,132.75Z"/><path class="cls-3" d="M155.78,137.75a1.44,1.44,0,0,1,1.69-2.33,1.46,1.46,0,0,1,.32,2,1.43,1.43,0,0,1-2,.34Z"/><path class="cls-3" d="M168.47,120.28a1.46,1.46,0,0,1-.32-2,1.44,1.44,0,1,1,2.34,1.68,1.45,1.45,0,0,1-2,.33Z"/><path class="cls-3" d="M169.37,112.92a1.44,1.44,0,0,1-1.69,2.33,1.42,1.42,0,0,1-.56-.87l1.35-1.73A1.45,1.45,0,0,1,169.37,112.92Z"/><path class="cls-3" d="M165.14,118.75a1.44,1.44,0,1,1-1.7,2.33,1.4,1.4,0,0,1-.58-1.25l1-1.28A1.43,1.43,0,0,1,165.14,118.75Z"/><path class="cls-3" d="M164.24,126.1a1.44,1.44,0,1,1,1.68-2.34,1.45,1.45,0,0,1,.33,2h0A1.44,1.44,0,0,1,164.24,126.1Z"/><path class="cls-3" d="M176.94,108.63a1.44,1.44,0,0,1,1.68-2.34,1.45,1.45,0,0,1,.33,2h0A1.44,1.44,0,0,1,176.94,108.63Z"/><path class="cls-3" d="M178.15,103.28a1.44,1.44,0,0,1-2,.32,1.3,1.3,0,0,1-.32-.34l1.69-2.16a1.23,1.23,0,0,1,.32.17,1.44,1.44,0,0,1,.32,2Z"/><path class="cls-3" d="M173.92,109.1a1.44,1.44,0,0,1-2,.32h0a1.42,1.42,0,0,1-.46-.57l1.56-2a1.28,1.28,0,0,1,.59.24A1.44,1.44,0,0,1,173.92,109.1Z"/><path class="cls-3" d="M172.7,114.45a1.44,1.44,0,0,1,1.68-2.34,1.45,1.45,0,0,1,.33,2h0A1.44,1.44,0,0,1,172.7,114.45Z"/><path class="cls-3" d="M185.4,97a1.44,1.44,0,1,1,1.68-2.34,1.45,1.45,0,0,1,.33,2h0A1.44,1.44,0,0,1,185.4,97Z"/><path class="cls-3" d="M186.62,91.63a1.44,1.44,0,0,1-2,.34l1.76-2.25A1.44,1.44,0,0,1,186.62,91.63Z"/><path class="cls-3" d="M182.38,97.45a1.44,1.44,0,0,1-2,.32h0l-.15-.13L182,95.39l.08,0a1.44,1.44,0,0,1,.32,2Z"/><path class="cls-3" d="M181.17,102.8a1.44,1.44,0,0,1,1.68-2.34,1.45,1.45,0,0,1,.33,2h0a1.44,1.44,0,0,1-2,.32Z"/><path class="cls-3" d="M193.86,85.33A1.44,1.44,0,0,1,195.54,83a1.45,1.45,0,0,1,.33,2h0A1.46,1.46,0,0,1,193.86,85.33Z"/><path class="cls-3" d="M195.08,80a1.46,1.46,0,0,1-1.48.56l1.6-2A1.41,1.41,0,0,1,195.08,80Z"/><path class="cls-3" d="M190.85,85.8a1.45,1.45,0,0,1-1.74.48l1.71-2.19A1.43,1.43,0,0,1,190.85,85.8Z"/><path class="cls-3" d="M189.63,91.15a1.44,1.44,0,0,1,1.61-2.39l.08.06a1.44,1.44,0,1,1-1.61,2.39Z"/><path class="cls-3" d="M202.33,73.68A1.44,1.44,0,0,1,204,71.34a1.45,1.45,0,0,1,.33,2h0A1.46,1.46,0,0,1,202.33,73.68Z"/><path class="cls-3" d="M203.54,68.33a1.45,1.45,0,0,1-.81.54l1.08-1.38A1.4,1.4,0,0,1,203.54,68.33Z"/><path class="cls-3" d="M199.31,74.15a1.41,1.41,0,0,1-1.18.6l1.41-1.8A1.47,1.47,0,0,1,199.31,74.15Z"/><path class="cls-3" d="M198.1,79.5a1.44,1.44,0,0,1,1.68-2.34,1.45,1.45,0,0,1,.33,2h0a1.44,1.44,0,0,1-2,.32Z"/><path class="cls-3" d="M208.57,67.53a1.44,1.44,0,0,1-2.39-1.61l.06-.08a1.44,1.44,0,0,1,1.49-.56c.34.68.65,1.37,1,2.06A.74.74,0,0,1,208.57,67.53Z"/><path class="cls-2" d="M148.78,137.21l17.36,22.17,17.24,22,2.94.86a27.52,27.52,0,0,0-19.56,19.08l-1-.3L148.6,180.75l-17.14-20.33-34-40.31c-13.61-15-16.21-38.32-6.31-56.52ZM148,159.82a2,2,0,1,0-2-2A2,2,0,0,0,148,159.82Z"/><line class="cls-4" x1="147.8" y1="181.42" x2="132.5" y2="198.75"/><path class="cls-4" d="M150,136.25,206.86,63.6c9.91,18.2,7.3,41.51-6.3,56.52l-32.48,37.74"/><line class="cls-4" x1="114.66" y1="181.42" x2="130.37" y2="161.34"/><path class="cls-4" d="M183.38,181.42l-17.24-22-17.36-22.17L91.18,63.64c-9.9,18.2-7.3,41.51,6.31,56.52l34,40.31,17.11,20.28,17.11,20.3"/><path class="cls-5" d="M148.05,152.35a5.5,5.5,0,1,0,5.49,5.52,5.5,5.5,0,0,0-5.49-5.52Z"/><path class="cls-4" d="M166.76,201.36a27.48,27.48,0,1,0,26.44-19.94,28,28,0,0,0-6.88.86A27.52,27.52,0,0,0,166.76,201.36Z"/><circle class="cls-4" cx="193.2" cy="208.91" r="11.78"/><path class="cls-4" d="M132.1,198.12a27.46,27.46,0,1,1-17.74-15.65A27.45,27.45,0,0,1,132.1,198.12Z"/><circle class="cls-4" cx="106.8" cy="208.91" r="11.78"/></svg>